<svg width="33" height="32" viewBox="0 0 33 32" fill="none" xmlns="http://www.w3.org/2000/svg">
<path d="M22.9004 0.5C24.5884 0.5 25.8245 0.50041 26.7998 0.580078C27.7694 0.659297 28.4376 0.814529 28.9971 1.09961C30.0318 1.62689 30.8731 2.46816 31.4004 3.50293C31.6855 4.06243 31.8407 4.7306 31.9199 5.7002C31.9996 6.67551 32 7.91156 32 9.59961V22.4004C32 24.0884 31.9996 25.3245 31.9199 26.2998C31.8407 27.2694 31.6855 27.9376 31.4004 28.4971C30.8731 29.5318 30.0318 30.3731 28.9971 30.9004C28.4376 31.1855 27.7694 31.3407 26.7998 31.4199C25.8245 31.4996 24.5884 31.5 22.9004 31.5H1V0.5H22.9004Z" fill="white"/>
<path d="M22.9004 0.5C24.5884 0.5 25.8245 0.50041 26.7998 0.580078C27.7694 0.659297 28.4376 0.814529 28.9971 1.09961C30.0318 1.62689 30.8731 2.46816 31.4004 3.50293C31.6855 4.06243 31.8407 4.7306 31.9199 5.7002C31.9996 6.67551 32 7.91156 32 9.59961V22.4004C32 24.0884 31.9996 25.3245 31.9199 26.2998C31.8407 27.2694 31.6855 27.9376 31.4004 28.4971C30.8731 29.5318 30.0318 30.3731 28.9971 30.9004C28.4376 31.1855 27.7694 31.3407 26.7998 31.4199C25.8245 31.4996 24.5884 31.5 22.9004 31.5H1V0.5H22.9004Z" stroke="#EFEFEF"/>
<path d="M19.8537 16.3538L14.8537 21.3538C14.8073 21.4002 14.7521 21.4371 14.6914 21.4622C14.6307 21.4874 14.5657 21.5003 14.5 21.5003C14.4343 21.5003 14.3692 21.4874 14.3085 21.4622C14.2478 21.4371 14.1927 21.4002 14.1462 21.3538C14.0998 21.3073 14.0629 21.2522 14.0378 21.1915C14.0126 21.1308 13.9997 21.0657 13.9997 21C13.9997 20.9343 14.0126 20.8693 14.0378 20.8086C14.0629 20.7479 14.0998 20.6927 14.1462 20.6463L18.7931 16L14.1462 11.3538C14.0524 11.26 13.9997 11.1327 13.9997 11C13.9997 10.8674 14.0524 10.7401 14.1462 10.6463C14.24 10.5525 14.3673 10.4998 14.5 10.4998C14.6327 10.4998 14.7599 10.5525 14.8537 10.6463L19.8537 15.6463C19.9002 15.6927 19.9371 15.7479 19.9623 15.8086C19.9874 15.8693 20.0004 15.9343 20.0004 16C20.0004 16.0657 19.9874 16.1308 19.9623 16.1915C19.9371 16.2522 19.9002 16.3073 19.8537 16.3538Z" fill="#343330"/>
</svg>
