<svg width="33" height="32" viewBox="0 0 33 32" fill="none" xmlns="http://www.w3.org/2000/svg">
<path d="M10.0996 0.5H32V31.5H10.0996C8.41156 31.5 7.17551 31.4996 6.2002 31.4199C5.2306 31.3407 4.56243 31.1855 4.00293 30.9004C2.96816 30.3731 2.12689 29.5318 1.59961 28.4971C1.31453 27.9376 1.1593 27.2694 1.08008 26.2998C1.00041 25.3245 1 24.0884 1 22.4004V9.59961C1 7.91156 1.00041 6.67551 1.08008 5.7002C1.1593 4.7306 1.31453 4.06243 1.59961 3.50293C2.12689 2.46816 2.96816 1.62689 4.00293 1.09961C4.56243 0.814529 5.2306 0.659297 6.2002 0.580078C7.17551 0.50041 8.41156 0.5 10.0996 0.5Z" fill="white"/>
<path d="M10.0996 0.5H32V31.5H10.0996C8.41156 31.5 7.17551 31.4996 6.2002 31.4199C5.2306 31.3407 4.56243 31.1855 4.00293 30.9004C2.96816 30.3731 2.12689 29.5318 1.59961 28.4971C1.31453 27.9376 1.1593 27.2694 1.08008 26.2998C1.00041 25.3245 1 24.0884 1 22.4004V9.59961C1 7.91156 1.00041 6.67551 1.08008 5.7002C1.1593 4.7306 1.31453 4.06243 1.59961 3.50293C2.12689 2.46816 2.96816 1.62689 4.00293 1.09961C4.56243 0.814529 5.2306 0.659297 6.2002 0.580078C7.17551 0.50041 8.41156 0.5 10.0996 0.5Z" stroke="#EFEFEF"/>
<path d="M18.8538 20.6463C18.9002 20.6927 18.9371 20.7479 18.9622 20.8086C18.9874 20.8693 19.0003 20.9343 19.0003 21C19.0003 21.0657 18.9874 21.1308 18.9622 21.1915C18.9371 21.2522 18.9002 21.3073 18.8538 21.3538C18.8073 21.4002 18.7522 21.4371 18.6915 21.4622C18.6308 21.4874 18.5657 21.5003 18.5 21.5003C18.4343 21.5003 18.3693 21.4874 18.3086 21.4622C18.2479 21.4371 18.1927 21.4002 18.1463 21.3538L13.1463 16.3538C13.0998 16.3073 13.0629 16.2522 13.0377 16.1915C13.0126 16.1308 12.9996 16.0657 12.9996 16C12.9996 15.9343 13.0126 15.8693 13.0377 15.8086C13.0629 15.7479 13.0998 15.6927 13.1463 15.6463L18.1463 10.6463C18.2401 10.5525 18.3673 10.4998 18.5 10.4998C18.6327 10.4998 18.76 10.5525 18.8538 10.6463C18.9476 10.7401 19.0003 10.8674 19.0003 11C19.0003 11.1327 18.9476 11.26 18.8538 11.3538L14.2069 16L18.8538 20.6463Z" fill="#343330"/>
</svg>
