<svg width="18" height="18" viewBox="0 0 18 18" fill="none" xmlns="http://www.w3.org/2000/svg">
<path d="M15.023 10.8521L9.39804 5.22709C9.3458 5.17479 9.28376 5.1333 9.21547 5.10499C9.14719 5.07668 9.07399 5.06211 9.00007 5.06211C8.92615 5.06211 8.85295 5.07668 8.78466 5.10499C8.71638 5.1333 8.65434 5.17479 8.6021 5.22709L2.9771 10.8521C2.87155 10.9576 2.81226 11.1008 2.81226 11.2501C2.81226 11.3993 2.87155 11.5425 2.9771 11.648C3.08265 11.7536 3.2258 11.8129 3.37507 11.8129C3.52434 11.8129 3.66749 11.7536 3.77304 11.648L9.00007 6.42029L14.2271 11.648C14.2794 11.7003 14.3414 11.7417 14.4097 11.77C14.478 11.7983 14.5512 11.8129 14.6251 11.8129C14.699 11.8129 14.7722 11.7983 14.8404 11.77C14.9087 11.7417 14.9708 11.7003 15.023 11.648C15.0753 11.5958 15.1168 11.5337 15.145 11.4654C15.1733 11.3971 15.1879 11.324 15.1879 11.2501C15.1879 11.1761 15.1733 11.103 15.145 11.0347C15.1168 10.9664 15.0753 10.9043 15.023 10.8521Z" fill="black"/>
</svg>
