<svg width="32" height="32" viewBox="0 0 32 32" fill="none" xmlns="http://www.w3.org/2000/svg">
<rect width="32" height="32" rx="6" fill="#65A30D"/>
<path d="M22.2069 12.5856L19.4144 9.79249C19.3215 9.6996 19.2113 9.62592 19.0899 9.57565C18.9686 9.52539 18.8385 9.49951 18.7072 9.49951C18.5759 9.49951 18.4458 9.52539 18.3245 9.57565C18.2031 9.62592 18.0929 9.6996 18 9.79249L10.2931 17.5C10.1999 17.5925 10.1259 17.7026 10.0756 17.824C10.0253 17.9453 9.99959 18.0755 10 18.2069V21C10 21.2652 10.1054 21.5196 10.2929 21.7071C10.4804 21.8946 10.7348 22 11 22H13.7931C13.9245 22.0004 14.0546 21.9747 14.176 21.9244C14.2973 21.8741 14.4075 21.8001 14.5 21.7069L22.2069 14C22.2998 13.9071 22.3734 13.7969 22.4237 13.6755C22.474 13.5542 22.4999 13.4241 22.4999 13.2928C22.4999 13.1615 22.474 13.0314 22.4237 12.9101C22.3734 12.7887 22.2998 12.6785 22.2069 12.5856ZM13.7931 21H11V18.2069L16.5 12.7069L19.2931 15.5L13.7931 21ZM20 14.7925L17.2069 12L18.7069 10.5L21.5 13.2925L20 14.7925Z" fill="white"/>
</svg>
