<svg width="14" height="14" viewBox="0 0 14 14" fill="none" xmlns="http://www.w3.org/2000/svg">
<path d="M12.5562 12.5617C12.4746 12.6422 12.3646 12.6873 12.25 12.6875C12.1338 12.687 12.0223 12.642 11.9383 12.5617L9.57577 10.1938C8.58078 11.0295 7.30156 11.4489 6.0049 11.3644C4.70824 11.2798 3.49427 10.698 2.61616 9.74021C1.73805 8.7824 1.26362 7.52257 1.29181 6.22347C1.31999 4.92436 1.84862 3.68629 2.76744 2.76747C3.68626 1.84865 4.92433 1.32002 6.22344 1.29184C7.52254 1.26365 8.78237 1.73809 9.74018 2.61619C10.698 3.4943 11.2798 4.70827 11.3643 6.00493C11.4488 7.30159 11.0295 8.58081 10.1937 9.57581L12.5562 11.9383C12.5976 11.979 12.6304 12.0275 12.6528 12.0811C12.6752 12.1346 12.6868 12.192 12.6868 12.25C12.6868 12.308 12.6752 12.3655 12.6528 12.419C12.6304 12.4725 12.5976 12.521 12.5562 12.5617ZM6.34374 10.5C7.16577 10.5 7.96934 10.2563 8.65283 9.79957C9.33632 9.34288 9.86904 8.69376 10.1836 7.9343C10.4982 7.17485 10.5805 6.33916 10.4201 5.53293C10.2598 4.7267 9.86392 3.98612 9.28266 3.40486C8.70139 2.8236 7.96082 2.42775 7.15459 2.26738C6.34835 2.10702 5.51267 2.18932 4.75322 2.5039C3.99376 2.81848 3.34464 3.35119 2.88795 4.03469C2.43125 4.71818 2.18749 5.52175 2.18749 6.34377C2.18894 7.44564 2.62729 8.50195 3.40643 9.28109C4.18556 10.0602 5.24188 10.4986 6.34374 10.5Z" fill="black" fill-opacity="0.45"/>
</svg>
